<svg xmlns="http://www.w3.org/2000/svg" width="263" height="253" viewBox="0 0 263 253" version="1.1"><path d="M 41.206 41.048 C 32.687 44.466, 35.206 72.654, 45.950 94.134 C 60.711 123.647, 88.369 145.975, 115.367 150.172 L 122.727 151.316 123.323 160.908 C 124.469 179.329, 131.046 198.003, 139.429 206.632 C 144.943 212.308, 148.122 213.664, 152.241 212.098 C 156.543 210.463, 158.496 205.640, 158.356 197 C 158.201 187.424, 154.662 176.223, 147.141 161.500 C 144.050 155.450, 141.411 150.275, 141.276 150 C 141.141 149.725, 143.611 148.687, 146.765 147.694 C 159.739 143.609, 177.153 129.969, 182.546 119.669 L 185.377 114.261 196.939 113.646 C 203.297 113.308, 217.177 112.734, 227.782 112.369 C 238.387 112.005, 247.301 111.322, 247.591 110.853 C 247.881 110.384, 233.965 110, 216.667 110 L 185.217 110 184.582 107.469 C 184.232 106.077, 182.496 104.025, 180.723 102.909 C 177.979 101.181, 176.213 100.934, 168.839 101.244 C 161.215 101.564, 159.254 102.065, 152.445 105.430 C 144.031 109.588, 134.025 118.640, 130.523 125.261 C 129.435 127.318, 128.237 129, 127.861 129 C 127.485 129, 120.917 120.563, 113.265 110.250 C 82.934 69.368, 61.838 46.591, 49.553 41.458 C 45.598 39.805, 44.443 39.748, 41.206 41.048 M 40.953 48.644 C 38.491 56.104, 42.251 75.776, 48.973 90.601 C 58.752 112.167, 80.130 133.234, 100.517 141.396 C 107.137 144.046, 121.834 147.499, 122.721 146.612 C 123.742 145.592, 125.770 134.417, 125.099 133.511 C 104.517 105.730, 86.999 83.002, 79.231 74 C 63.166 55.383, 50.869 45, 44.882 45 C 42.632 45, 41.945 45.637, 40.953 48.644 M 160.487 106.799 C 149.089 110.740, 139.016 119.043, 133.632 128.934 L 130.922 133.914 134.667 139.554 C 138.195 144.867, 138.605 145.163, 141.728 144.657 C 147.274 143.757, 159.124 137.445, 166.075 131.689 C 176.396 123.143, 182.156 114.216, 180.571 109.224 C 179.191 104.877, 169.447 103.701, 160.487 106.799 M 128.654 141.460 C 127.288 145.019, 127.893 147.155, 130.172 146.820 C 133.057 146.395, 133.341 145.005, 131.130 142.128 C 129.521 140.034, 129.231 139.955, 128.654 141.460 M 127.298 159.192 C 129.022 182.917, 140.462 208, 149.560 208 C 153.104 208, 154.318 204.158, 153.666 195 C 153.014 185.836, 149.679 175.846, 142.651 162 L 137.321 151.500 132.008 151.192 L 126.695 150.885 127.298 159.192" stroke="none" fill="#fbf2f2" fill-rule="evenodd"/><path d="M 8 112.446 L 8 221.925 10.162 227.712 C 13.158 235.730, 22.293 244.851, 30.339 247.857 L 36.178 250.038 133.339 249.769 L 230.500 249.500 235.216 247.156 C 242.749 243.412, 248.578 237.603, 252.213 230.218 L 255.500 223.542 255.500 126.500 L 255.500 29.458 252.213 22.782 C 248.578 15.397, 242.749 9.588, 235.216 5.844 L 230.500 3.500 119.250 3.233 L 8 2.966 8 112.446 M 41.206 41.048 C 32.687 44.466, 35.206 72.654, 45.950 94.134 C 60.711 123.647, 88.369 145.975, 115.367 150.172 L 122.727 151.316 123.323 160.908 C 124.469 179.329, 131.046 198.003, 139.429 206.632 C 144.943 212.308, 148.122 213.664, 152.241 212.098 C 156.543 210.463, 158.496 205.640, 158.356 197 C 158.201 187.424, 154.662 176.223, 147.141 161.500 C 144.050 155.450, 141.411 150.275, 141.276 150 C 141.141 149.725, 143.611 148.687, 146.765 147.694 C 159.739 143.609, 177.153 129.969, 182.546 119.669 L 185.377 114.261 196.939 113.646 C 203.297 113.308, 217.177 112.734, 227.782 112.369 C 238.387 112.005, 247.301 111.322, 247.591 110.853 C 247.881 110.384, 233.965 110, 216.667 110 L 185.217 110 184.582 107.469 C 184.232 106.077, 182.496 104.025, 180.723 102.909 C 177.979 101.181, 176.213 100.934, 168.839 101.244 C 161.215 101.564, 159.254 102.065, 152.445 105.430 C 144.031 109.588, 134.025 118.640, 130.523 125.261 C 129.435 127.318, 128.237 129, 127.861 129 C 127.485 129, 120.917 120.563, 113.265 110.250 C 82.934 69.368, 61.838 46.591, 49.553 41.458 C 45.598 39.805, 44.443 39.748, 41.206 41.048 M 40.953 48.644 C 38.491 56.104, 42.251 75.776, 48.973 90.601 C 58.752 112.167, 80.130 133.234, 100.517 141.396 C 107.137 144.046, 121.834 147.499, 122.721 146.612 C 123.742 145.592, 125.770 134.417, 125.099 133.511 C 104.517 105.730, 86.999 83.002, 79.231 74 C 63.166 55.383, 50.869 45, 44.882 45 C 42.632 45, 41.945 45.637, 40.953 48.644 M 160.487 106.799 C 149.089 110.740, 139.016 119.043, 133.632 128.934 L 130.922 133.914 134.667 139.554 C 138.195 144.867, 138.605 145.163, 141.728 144.657 C 147.274 143.757, 159.124 137.445, 166.075 131.689 C 176.396 123.143, 182.156 114.216, 180.571 109.224 C 179.191 104.877, 169.447 103.701, 160.487 106.799 M 128.654 141.460 C 127.288 145.019, 127.893 147.155, 130.172 146.820 C 133.057 146.395, 133.341 145.005, 131.130 142.128 C 129.521 140.034, 129.231 139.955, 128.654 141.460 M 127.298 159.192 C 129.022 182.917, 140.462 208, 149.560 208 C 153.104 208, 154.318 204.158, 153.666 195 C 153.014 185.836, 149.679 175.846, 142.651 162 L 137.321 151.500 132.008 151.192 L 126.695 150.885 127.298 159.192" stroke="none" fill="#dc1414" fill-rule="evenodd"/></svg>